<svg xmlns="http://www.w3.org/2000/svg" version="1.1" xmlns:xlink="http://www.w3.org/1999/xlink" xmlns:svgjs="http://svgjs.com/svgjs" width="512px" height="512px"><svg xmlns="http://www.w3.org/2000/svg" version="1.1" width="512px" height="512px" style="shape-rendering:geometricPrecision; text-rendering:geometricPrecision; image-rendering:optimizeQuality; fill-rule:evenodd; clip-rule:evenodd" xmlns:xlink="http://www.w3.org/1999/xlink">
<g><path style="opacity:0.985" fill="#60dafb" d="M 147.5,37.5 C 169.061,37.185 189.061,42.685 207.5,54C 224.474,64.3078 240.308,76.1411 255,89.5C 267.87,78.9648 281.037,68.7981 294.5,59C 309.531,48.9854 325.864,41.9854 343.5,38C 373.474,34.0635 392.641,46.5635 401,75.5C 407.42,107.65 406.587,139.65 398.5,171.5C 398.833,172.167 399.167,172.833 399.5,173.5C 426.666,181.418 451.666,193.584 474.5,210C 509.709,239.364 510.376,269.364 476.5,300C 453.439,317.448 427.939,330.281 400,338.5C 402.553,354.377 404.553,370.377 406,386.5C 408.044,408.708 404.711,430.041 396,450.5C 387.071,466.053 373.571,474.053 355.5,474.5C 343.332,473.708 331.666,470.875 320.5,466C 296.798,454.288 275.298,439.455 256,421.5C 235.107,441.701 211.273,457.534 184.5,469C 139.992,483.662 114.158,467.828 107,421.5C 105.534,408.531 105.201,395.531 106,382.5C 107.449,367.694 109.449,353.028 112,338.5C 83.405,329.953 57.2383,316.786 33.5,299C 1.04489,269.036 1.71156,239.703 35.5,211C 58.9771,193.928 84.6438,181.095 112.5,172.5C 103.697,139.984 102.864,107.318 110,74.5C 115.19,54.4744 127.69,42.1411 147.5,37.5 Z M 151.5,60.5 C 167.344,61.0584 182.011,65.5584 195.5,74C 210.973,83.4677 225.306,94.4677 238.5,107C 224.081,122.748 210.414,139.082 197.5,156C 176.337,158.638 155.337,162.138 134.5,166.5C 128.612,141.759 127.112,116.759 130,91.5C 131.23,82.8066 134.23,74.8066 139,67.5C 142.473,63.7476 146.64,61.4143 151.5,60.5 Z M 347.5,60.5 C 363.223,58.0755 373.389,64.4089 378,79.5C 382.685,98.624 383.685,117.957 381,137.5C 379.691,147.207 378.191,156.874 376.5,166.5C 355.659,162.138 334.659,158.638 313.5,156C 300.399,139.063 286.732,122.563 272.5,106.5C 289.461,89.7223 308.794,76.2223 330.5,66C 336.254,64.0252 341.921,62.1919 347.5,60.5 Z M 254.5,123.5 C 264.003,132.838 273.003,142.671 281.5,153C 264.167,153.667 246.833,153.667 229.5,153C 237.293,142.707 245.627,132.874 254.5,123.5 Z M 234.5,176.5 C 256.561,176.049 278.561,176.882 300.5,179C 316.995,202.536 331.495,227.369 344,253.5C 344.667,254.833 344.667,256.167 344,257.5C 331.914,284.186 317.414,309.353 300.5,333C 270.499,336.314 240.499,336.314 210.5,333C 193.785,308.591 179.118,282.924 166.5,256C 178.951,229.245 193.451,203.745 210,179.5C 218.223,178.13 226.39,177.13 234.5,176.5 Z M 179.5,182.5 C 170.506,197.148 162.006,212.148 154,227.5C 148.901,215.201 144.401,202.701 140.5,190C 153.322,186.535 166.322,184.035 179.5,182.5 Z M 331.5,182.5 C 342.256,183.751 352.923,185.584 363.5,188C 366.008,188.115 368.008,189.115 369.5,191C 365.929,203.38 361.762,215.546 357,227.5C 348.994,212.148 340.494,197.148 331.5,182.5 Z M 117.5,195.5 C 124.06,216.002 131.726,236.169 140.5,256C 132.085,275.006 124.918,294.506 119,314.5C 118.439,315.022 117.772,315.355 117,315.5C 95.8162,309.157 75.9828,299.99 57.5,288C 48.2879,281.788 40.7879,273.955 35,264.5C 31.6637,255.832 32.997,247.832 39,240.5C 52.2886,226.552 67.7886,215.718 85.5,208C 96.1436,203.501 106.81,199.335 117.5,195.5 Z M 392.5,195.5 C 415.043,202.106 436.043,211.939 455.5,225C 464.471,231.634 471.638,239.801 477,249.5C 478.753,256.182 477.753,262.515 474,268.5C 465.014,279.154 454.514,287.987 442.5,295C 426.598,303.787 409.932,310.62 392.5,315.5C 386.555,294.998 379.221,274.998 370.5,255.5C 379.523,236.121 386.856,216.121 392.5,195.5 Z M 153.5,284.5 C 161.636,299.433 170.303,314.1 179.5,328.5C 178.833,328.833 178.167,329.167 177.5,329.5C 165.437,327.421 153.437,325.087 141.5,322.5C 144.896,309.646 148.896,296.979 153.5,284.5 Z M 356.5,284.5 C 361.924,296.423 366.59,308.756 370.5,321.5C 357.688,325.531 344.688,327.865 331.5,328.5C 340.857,314.456 349.191,299.789 356.5,284.5 Z M 135.5,344.5 C 156.294,349.466 177.294,353.466 198.5,356.5C 210.852,373.693 224.519,389.86 239.5,405C 222.833,420.331 204.5,433.331 184.5,444C 175.586,448.062 166.253,450.562 156.5,451.5C 145.165,451.008 137.665,445.342 134,434.5C 128.401,414.816 127.068,394.816 130,374.5C 131.135,364.331 132.968,354.331 135.5,344.5 Z M 374.5,344.5 C 376.045,345.23 376.878,346.563 377,348.5C 382.069,370.237 383.736,392.237 382,414.5C 381.038,424.014 378.372,433.014 374,441.5C 366.803,450.171 357.636,453.004 346.5,450C 329.848,445.34 314.514,438.006 300.5,428C 290.876,420.711 281.542,413.045 272.5,405C 286.777,389.561 300.111,373.395 312.5,356.5C 333.461,353.51 354.127,349.51 374.5,344.5 Z M 229.5,358.5 C 247.002,358.657 264.668,358.491 282.5,358C 273.667,368.167 264.833,378.333 256,388.5C 246.558,378.9 237.724,368.9 229.5,358.5 Z"></path></g>
<g><path style="opacity:0.993" fill="#60dafb" d="M 250.5,209.5 C 277.678,209.185 294.511,222.185 301,248.5C 303.052,275.439 291.219,292.939 265.5,301C 236.199,304.279 217.699,291.779 210,263.5C 208.238,233.792 221.738,215.792 250.5,209.5 Z"></path></g>
</svg><style>@media (prefers-color-scheme: light) { :root { filter: none; } }
</style></svg>